<svg width="124" height="107" viewBox="0 0 124 107" fill="none" xmlns="http://www.w3.org/2000/svg">
<path d="M103.29 12.1263C103.274 12.0645 103.23 12.0157 103.209 11.9574C103.174 11.8573 103.127 11.7606 103.071 11.6683C103.006 11.5621 102.929 11.4628 102.84 11.3705C102.768 11.2939 102.69 11.2225 102.604 11.1563C102.5 11.0805 102.386 11.0152 102.265 10.9604C102.163 10.9072 102.055 10.862 101.943 10.8245C101.809 10.7879 101.669 10.7636 101.529 10.7514C101.443 10.7296 101.355 10.7122 101.267 10.7H90.8466C90.3137 4.49229 86.9756 0 82.6667 0C78.3578 0 75.0196 4.49229 74.4868 10.7H70.1799C69.6471 4.49229 66.3089 0 62 0C57.6911 0 54.3529 4.49229 53.8201 10.7H49.5132C48.9804 4.49229 45.6423 0 41.3333 0C37.0244 0 33.6863 4.49229 33.1535 10.7H28.8466C28.3137 4.49229 24.9756 0 20.6667 0C16.3577 0 13.0196 4.49229 12.4868 10.7H2.06667C0.925358 10.7 0 11.4985 0 12.4833V105.217C0 106.202 0.925358 107 2.06667 107H101.267C102.408 107 103.333 106.202 103.333 105.217V99.8667H121.933C122.554 99.8667 123.141 99.6255 123.533 99.211C123.925 98.7956 124.081 98.2514 123.957 97.7263L103.29 12.1263ZM82.6667 3.56667C84.1592 3.56667 86.242 6.29914 86.7011 10.7H78.6403C79.0914 6.29914 81.1742 3.56667 82.6667 3.56667ZM62 3.56667C63.4925 3.56667 65.5753 6.29914 66.0344 10.7H57.9736C58.4247 6.29914 60.5075 3.56667 62 3.56667ZM41.3333 3.56667C42.8258 3.56667 44.9086 6.29914 45.3678 10.7H37.307C37.758 6.29914 39.8409 3.56667 41.3333 3.56667ZM20.6667 3.56667C22.1591 3.56667 24.242 6.29914 24.7011 10.7H16.6403C17.0914 6.29914 19.1742 3.56667 20.6667 3.56667ZM4.13333 14.2667H12.4868C13.0196 20.4744 16.3577 24.9667 20.6667 24.9667C21.808 24.9667 22.7333 24.1682 22.7333 23.1833C22.7333 22.1985 21.808 21.4 20.6667 21.4C19.1742 21.4 17.0914 18.6675 16.6322 14.2667H33.1535C33.6933 20.4744 37.0244 24.9667 41.3333 24.9667C42.4746 24.9667 43.4 24.1682 43.4 23.1833C43.4 22.1985 42.4746 21.4 41.3333 21.4C39.8409 21.4 37.758 18.6675 37.2989 14.2667H53.8201C54.36 20.4744 57.6911 24.9667 62 24.9667C63.1413 24.9667 64.0667 24.1682 64.0667 23.1833C64.0667 22.1985 63.1413 21.4 62 21.4C60.5075 21.4 58.4247 18.6675 57.9656 14.2667H74.4868C75.0267 20.4744 78.3578 24.9667 82.6667 24.9667C83.808 24.9667 84.7333 24.1682 84.7333 23.1833C84.7333 22.1985 83.808 21.4 82.6667 21.4C81.1742 21.4 79.0914 18.6675 78.6322 14.2667H99.2V32.1H4.13333V14.2667ZM99.2 103.433H4.13333V35.6667H99.2V103.433ZM103.333 96.3V29.782L119.393 96.3H103.333Z" fill="#EEEEEE"/>
</svg>
