<svg width="256" height="210" viewBox="0 0 256 210" fill="none" xmlns="http://www.w3.org/2000/svg">
<path d="M166.4 158.334H89.6C87.04 158.334 85.3335 160.04 85.3335 162.6V188.2C85.3335 190.76 87.04 192.467 89.6 192.467H166.4C168.96 192.467 170.667 190.76 170.667 188.2V162.6C170.667 160.04 168.96 158.334 166.4 158.334ZM162.133 183.934H93.8665V166.867H162.133V183.934H162.133Z" fill="white"/>
<path d="M168.533 81.96L148.053 94.3335C140.8 98.6 133.12 102.44 125.867 105.854C123.733 106.707 121.174 107.987 118.614 109.267C109.654 113.961 104.96 123.774 107.093 133.587C108.8 141.267 115.2 147.667 122.88 149.374C124.586 149.8 126.294 149.8 128 149.8C136.107 149.8 143.36 145.107 147.2 137.854C148.053 135.72 149.333 133.16 150.613 130.6C154.453 123.347 157.867 115.666 162.133 108.413L174.507 87.9335C175.361 86.227 174.934 84.52 173.654 82.8135C172.374 81.1065 170.24 81.1065 168.533 81.96ZM154.88 103.72C150.187 111.4 146.347 119.08 142.934 126.76C142.08 129.32 140.8 131.454 139.52 134.014C136.96 139.56 130.986 142.12 125.013 140.84C120.32 139.986 116.48 136.147 115.627 131.454C114.347 125.48 116.907 119.507 122.453 116.947C124.587 115.667 127.147 114.813 129.707 113.533C137.387 109.693 145.493 105.853 152.747 101.587L158.294 98.1735L154.88 103.72Z" fill="white"/>
<path d="M246.859 81.104C246.805 80.8165 246.724 80.531 246.613 80.253C246.502 79.974 246.36 79.7185 246.195 79.4845C239.802 64.1765 230.512 50.352 219.021 38.702C218.859 38.461 218.671 38.23 218.454 38.013C218.237 37.796 218.005 37.6075 217.764 37.4455C194.616 14.613 162.882 0.466499 128 0.466499C111.291 0.466499 95.3055 3.7165 80.6375 9.607C80.35 9.661 80.0645 9.742 79.787 9.853C79.5085 9.9645 79.2525 10.1065 79.0185 10.2715C63.7105 16.665 49.886 25.954 38.236 37.4455C37.995 37.6075 37.764 37.796 37.547 38.013C37.33 38.23 37.141 38.461 36.9795 38.702C14.1465 61.85 0 93.5845 0 128.466C0 157.48 9.3865 185.213 27.7335 207.827C28.587 209.107 29.867 209.533 31.147 209.533H224.854C226.134 209.533 227.413 209.107 228.267 207.827C246.613 185.214 256 157.48 256 128.466C256 111.757 252.75 95.772 246.859 81.104ZM223.146 201H33.28C27.5105 193.56 22.719 185.578 18.9325 177.192L30.72 172.413C32.8535 171.56 33.7065 169 32.8535 166.867C32 164.734 29.44 163.88 27.307 164.733L15.752 169.418C11.465 157.747 9.055 145.407 8.613 132.733H38.4C40.96 132.733 42.6665 131.027 42.6665 128.467C42.6665 125.907 40.96 124.2 38.4 124.2H8.6185C9.097 110.746 11.8265 97.8425 16.4425 85.853L28.16 90.92C28.5865 91.3465 29.44 91.3465 29.8665 91.3465C31.573 91.3465 32.853 90.493 33.7065 88.7865C34.56 86.653 33.7065 84.093 31.573 83.24L19.737 78.1215C25.0865 66.706 32.19 56.261 40.698 47.138L49.493 55.933C50.3465 56.7865 51.1995 57.213 52.4795 57.213C53.7595 57.213 54.613 56.7865 55.466 55.933C57.1725 54.2265 57.1725 51.6665 55.466 49.9595L46.671 41.1645C56.2295 32.2505 67.2365 24.874 79.293 19.4455L84.053 31.1865C84.4795 32.893 86.1865 33.7465 87.893 33.7465C88.3195 33.7465 88.7465 33.7465 89.5995 33.32C91.733 32.4665 92.586 29.9065 91.733 27.7735L87.0685 16.2675C98.579 12.036 110.908 9.5415 123.733 9.0855V38.867C123.733 41.427 125.439 43.1335 127.999 43.1335C130.559 43.1335 132.266 41.427 132.266 38.867V9.085C145.72 9.5635 158.624 12.293 170.613 16.909L165.546 28.627C164.693 30.7605 165.546 33.3205 167.68 34.1735C168.106 34.6 168.96 34.6 169.386 34.6C171.093 34.6 172.799 33.32 173.226 32.04L178.344 20.204C189.76 25.5535 200.205 32.657 209.328 41.165L200.533 49.96C198.827 51.6665 198.827 54.2265 200.533 55.9335C201.387 56.787 202.24 57.2135 203.52 57.2135C204.373 57.2135 205.653 56.787 206.506 55.9335L215.301 47.1385C224.215 56.697 231.592 67.704 237.02 79.7605L225.279 84.5205C223.146 85.374 222.292 87.934 223.145 90.067C223.572 91.7735 225.279 92.627 226.986 92.627C227.412 92.627 227.839 92.2005 228.692 92.2005L240.199 87.536C244.43 99.0465 246.924 111.376 247.38 124.201H217.6C215.04 124.201 213.333 125.907 213.333 128.467C213.333 131.027 215.04 132.733 217.6 132.733H247.387C246.924 146.03 244.301 158.959 239.678 171.133L227.84 166.013C225.706 165.16 223.147 166.014 222.294 168.147C221.44 170.281 222.294 172.84 224.427 173.693L236.417 178.878C232.822 186.649 228.386 194.061 223.146 201Z" fill="white"/>
</svg>
