<svg width="512" height="512" viewBox="0 0 512 512" fill="none" xmlns="http://www.w3.org/2000/svg">
<g clip-path="url(#clip0)">
<path d="M446.313 394.714C464.532 380.658 476.301 358.63 476.301 333.892C476.301 291.544 441.848 257.091 399.5 257.091C376.25 257.091 355.396 267.49 341.3 283.865C332.112 245.281 297.357 216.498 256 216.498C214.644 216.498 179.888 245.281 170.7 283.865C156.605 267.49 135.751 257.09 112.501 257.09C70.152 257.09 35.699 291.543 35.699 333.891C35.699 358.629 47.467 380.658 65.687 394.713C26.96 412.509 0 451.663 0 497V512H512V497C512 451.663 485.04 412.509 446.313 394.714ZM399.5 287.091C425.306 287.091 446.301 308.086 446.301 333.892C446.301 359.698 425.306 380.693 399.5 380.693C373.694 380.693 352.699 359.698 352.699 333.892C352.699 308.086 373.694 287.091 399.5 287.091ZM326.16 356.709C330.914 371.961 340.317 385.171 352.687 394.714C349.084 396.37 345.584 398.212 342.197 400.225C331.262 390.475 318.672 382.547 304.904 376.92C313.067 371.414 320.257 364.572 326.16 356.709ZM256 246.499C287.806 246.499 313.681 272.374 313.681 304.179C313.681 335.984 287.806 361.859 256 361.859C224.195 361.859 198.32 335.984 198.32 304.179C198.32 272.374 224.195 246.499 256 246.499ZM185.841 356.709C191.743 364.572 198.934 371.415 207.097 376.92C193.329 382.548 180.739 390.475 169.804 400.225C166.417 398.212 162.917 396.37 159.314 394.714C171.684 385.171 181.086 371.96 185.841 356.709ZM112.501 287.091C138.307 287.091 159.301 308.086 159.301 333.892C159.301 359.698 138.307 380.693 112.501 380.693C86.694 380.693 65.699 359.698 65.699 333.892C65.699 308.086 86.694 287.091 112.501 287.091ZM127.21 482H31.366C38.438 443.644 72.129 414.5 112.5 414.5C125.766 414.5 138.301 417.663 149.417 423.25C137.57 440.319 129.715 460.355 127.21 482ZM157.463 482C164.72 434.138 206.144 397.336 256 397.336C305.857 397.336 347.28 434.137 354.537 482H157.463ZM384.792 482C382.287 460.355 374.432 440.319 362.585 423.25C373.701 417.664 386.235 414.5 399.501 414.5C439.872 414.5 473.562 443.644 480.635 482H384.792Z" fill="#EEEEEE"/>
<path d="M257.35 0H21.38V170.365H109.377L185.06 210.987L184.498 170.365H257.35V0ZM227.351 140.365H154.08L154.358 160.46L116.92 140.365H51.38V30H227.351V140.365Z" fill="#EEEEEE"/>
<path d="M188.4 68.66H90.32V98.66H188.4V68.66Z" fill="#EEEEEE"/>
<path d="M291.512 64.249V209.493H351.289L350.803 244.682L416.364 209.493H490.622V64.249H291.512ZM460.621 179.493H408.82L381.504 194.155L381.707 179.493H321.512V94.249H460.621V179.493Z" fill="#EEEEEE"/>
<path d="M431.33 120.62H350.8V150.62H431.33V120.62Z" fill="#EEEEEE"/>
</g>
<defs>
<clipPath id="clip0">
<rect width="512" height="512" fill="white"/>
</clipPath>
</defs>
</svg>
