<svg width="66" height="77" viewBox="0 0 66 77" fill="none" xmlns="http://www.w3.org/2000/svg">
<path d="M33.6566 0.0160488C15.1763 -0.510931 0 12.0081 0 27.5262C0 45.1375 19.9737 57.9186 31.1689 76.2994C31.7373 77.2327 33.325 77.2339 33.8954 76.3008C44.0231 59.7617 61.3327 48.6713 64.5406 32.7378C67.862 16.2497 53.412 0.579609 33.6566 0.0160488ZM32.5306 41.9444C23.1199 41.9444 15.4908 35.4889 15.4908 27.5262C15.4908 19.5635 23.1201 13.1079 32.5306 13.1079C41.9412 13.1079 49.5705 19.5635 49.5705 27.5262C49.5705 35.4889 41.9412 41.9444 32.5306 41.9444Z" fill="#EEEEEE"/>
</svg>
